<svg width="38" height="37" viewBox="0 0 38 37" fill="none" xmlns="http://www.w3.org/2000/svg">
<path d="M18.7592 3.29143C23.6428 3.29143 24.2211 3.31285 26.1417 3.39852C27.9267 3.47706 28.8905 3.77693 29.5331 4.02682C30.3827 4.35525 30.9968 4.75508 31.6322 5.39052C32.2748 6.03309 32.6675 6.63997 32.9959 7.48961C33.2458 8.13218 33.5457 9.10319 33.6242 10.881C33.7099 12.8087 33.7313 13.387 33.7313 18.2635C33.7313 23.1471 33.7099 23.7254 33.6242 25.646C33.5457 27.4309 33.2458 28.3948 32.9959 29.0374C32.6675 29.887 32.2676 30.501 31.6322 31.1365C30.9896 31.7791 30.3827 32.1717 29.5331 32.5002C28.8905 32.7501 27.9195 33.0499 26.1417 33.1285C24.214 33.2141 23.6357 33.2356 18.7592 33.2356C13.8756 33.2356 13.2973 33.2141 11.3767 33.1285C9.59178 33.0499 8.62791 32.7501 7.98533 32.5002C7.1357 32.1717 6.52168 31.7719 5.88624 31.1365C5.24366 30.4939 4.85098 29.887 4.52255 29.0374C4.27266 28.3948 3.97279 27.4238 3.89425 25.646C3.80857 23.7183 3.78715 23.14 3.78715 18.2635C3.78715 13.3799 3.80857 12.8016 3.89425 10.881C3.97279 9.09605 4.27266 8.13218 4.52255 7.48961C4.85098 6.63997 5.2508 6.02595 5.88624 5.39052C6.52882 4.74794 7.1357 4.35525 7.98533 4.02682C8.62791 3.77693 9.59892 3.47706 11.3767 3.39852C13.2973 3.31285 13.8756 3.29143 18.7592 3.29143ZM18.7592 0C13.7971 0 13.1759 0.0214193 11.2268 0.107096C9.28477 0.192773 7.94963 0.506923 6.79299 0.956727C5.58637 1.42795 4.56539 2.04911 3.55154 3.0701C2.53056 4.08394 1.9094 5.10493 1.43817 6.30441C0.988368 7.46819 0.674219 8.79618 0.588542 10.7382C0.502865 12.6945 0.481445 13.3156 0.481445 18.2778C0.481445 23.2399 0.502865 23.8611 0.588542 25.8102C0.674219 27.7522 0.988368 29.0874 1.43817 30.244C1.9094 31.4506 2.53056 32.4716 3.55154 33.4855C4.56539 34.4993 5.58637 35.1276 6.78585 35.5917C7.94963 36.0415 9.27763 36.3556 11.2196 36.4413C13.1688 36.527 13.79 36.5484 18.7521 36.5484C23.7142 36.5484 24.3354 36.527 26.2845 36.4413C28.2265 36.3556 29.5617 36.0415 30.7183 35.5917C31.9178 35.1276 32.9388 34.4993 33.9526 33.4855C34.9665 32.4716 35.5948 31.4506 36.0589 30.2512C36.5087 29.0874 36.8228 27.7594 36.9085 25.8174C36.9942 23.8682 37.0156 23.247 37.0156 18.2849C37.0156 13.3228 36.9942 12.7016 36.9085 10.7525C36.8228 8.81046 36.5087 7.47533 36.0589 6.31869C35.609 5.10493 34.9879 4.08394 33.9669 3.0701C32.9531 2.05625 31.9321 1.42795 30.7326 0.963867C29.5688 0.514062 28.2408 0.199913 26.2988 0.114236C24.3425 0.0214193 23.7214 0 18.7592 0Z" fill="#F39741"/>
<path d="M18.7594 8.88904C13.5759 8.88904 9.37061 13.0944 9.37061 18.2778C9.37061 23.4613 13.5759 27.6666 18.7594 27.6666C23.9428 27.6666 28.1482 23.4613 28.1482 18.2778C28.1482 13.0944 23.9428 8.88904 18.7594 8.88904ZM18.7594 24.368C15.3966 24.368 12.6692 21.6406 12.6692 18.2778C12.6692 14.915 15.3966 12.1876 18.7594 12.1876C22.1222 12.1876 24.8496 14.915 24.8496 18.2778C24.8496 21.6406 22.1222 24.368 18.7594 24.368Z" fill="#F39741"/>
<path d="M30.7114 8.51771C30.7114 9.73147 29.7262 10.7096 28.5195 10.7096C27.3058 10.7096 26.3276 9.72433 26.3276 8.51771C26.3276 7.30395 27.3129 6.32581 28.5195 6.32581C29.7262 6.32581 30.7114 7.31109 30.7114 8.51771Z" fill="#F39741"/>
</svg>
