<svg width="37" height="37" viewBox="0 0 37 37" fill="none" xmlns="http://www.w3.org/2000/svg">
<path fill-rule="evenodd" clip-rule="evenodd" d="M3.01399 2.56965C0.444336 5.1393 0.444336 9.27506 0.444336 17.5467V19.0089C0.444336 27.2805 0.444336 31.4162 3.01399 33.9859C5.58364 36.5556 9.71939 36.5556 17.991 36.5556H19.4532C27.7248 36.5556 31.8606 36.5556 34.4303 33.9859C36.9999 31.4162 36.9999 27.2805 36.9999 19.0089V17.5467C36.9999 9.27506 36.9999 5.1393 34.4303 2.56965C31.8606 0 27.7248 0 19.4532 0H17.991C9.71939 0 5.58364 0 3.01399 2.56965ZM6.61318 11.1191C6.81119 20.6235 11.5634 26.3353 19.895 26.3353H20.3673V20.8977C23.4288 21.2023 25.7438 23.4413 26.6729 26.3353H30.9988C29.8107 22.0096 26.6881 19.6182 24.7385 18.7043C26.6881 17.5772 29.4298 14.8355 30.0847 11.1191H26.1549C25.302 14.1349 22.7738 16.8766 20.3673 17.1355V11.1191H16.4374V21.6592C14.0004 21.05 10.9237 18.0951 10.7866 11.1191H6.61318Z" fill="#F39741"/>
</svg>
