<svg width="72" height="72" viewBox="0 0 72 72" fill="none" xmlns="http://www.w3.org/2000/svg">
<path d="M62.6631 11.8116C57.815 6.46744 51.4727 2.70346 44.4591 1.00796C37.4455 -0.68754 30.0843 -0.236301 23.3303 2.30314C16.5763 4.84258 10.7413 9.35303 6.58213 15.2494C2.42299 21.1457 0.13171 28.1558 0.00550681 35.3703C-0.120697 42.5849 1.92401 49.6708 5.87437 55.709C9.82473 61.7472 15.4984 66.459 22.1595 69.2331C28.8205 72.0072 36.1615 72.7157 43.2301 71.2665C50.2987 69.8173 56.7687 66.2775 61.8008 61.1061L61.1159 60.4396C56.2173 65.4736 49.9191 68.9195 43.0382 70.3302C36.1572 71.7409 29.0111 71.0513 22.5269 68.3508C16.0427 65.6504 10.5196 61.0637 6.67416 55.1858C2.82868 49.3079 0.838261 42.41 0.961114 35.3871C1.08397 28.3641 3.31442 21.5401 7.36313 15.8003C11.4118 10.0605 17.092 5.66977 23.6667 3.19775C30.2413 0.725726 37.4072 0.286466 44.2346 1.93695C51.0619 3.58744 57.2358 7.25149 61.9553 12.4538L62.6631 11.8116Z" fill="#A26634"/>
<path d="M25.2488 8.05507C19.2039 9.73178 13.8656 13.3234 10.0349 18.2912C6.20416 23.2589 4.08757 29.3349 4.00266 35.6075C3.91774 41.8801 5.86909 48.0111 9.56392 53.0807C13.2588 58.1503 18.4979 61.8851 24.4952 63.7249L24.721 62.9888C18.8829 61.1979 13.7829 57.5622 10.1861 52.6272C6.58938 47.6922 4.68984 41.724 4.7725 35.6179C4.85516 29.5118 6.91555 23.5972 10.6446 18.7613C14.3736 13.9255 19.5701 10.4292 25.4546 8.79697L25.2488 8.05507Z" fill="#A26634"/>
</svg>
